<svg width="200" height="200" viewBox="0 0 200 200" xmlns="http://www.w3.org/2000/svg">
  <!-- Blue box with rounded corners -->
  <rect x="10" y="10" width="180" height="180" rx="30" ry="30" fill="#4285F4"/>

  <g transform="translate(-15, -5)">
    <!-- White speech bubble -->
    <path d="M 50 50 Q 40 50 40 60 L 40 130 Q 40 140 50 140 L 120 140 Q 130 140 130 130 L 130 90 L 150 70 L 130 50 L 50 50 Z" fill="white"/>

    <!-- Goofy robot head inside the speech bubble -->
    <!-- Head -->
    <rect x="75" y="80" width="50" height="40" rx="5" ry="5" fill="#333"/>
    <!-- Eyes -->
    <circle cx="90" cy="90" r="5" fill="white"/>
    <circle cx="110" cy="90" r="5" fill="white"/>
    <!-- Mouth -->
    <rect x="85" y="105" width="30" height="5" rx="2" ry="2" fill="white"/>
    <!-- Antenna -->
    <rect x="99" y="70" width="2" height="10" fill="#333"/>
    <circle cx="100" cy="68" r="3" fill="#333"/>
  </g>
</svg>